<svg width="2002" height="1325" viewBox="0 0 2002 1325" fill="none" xmlns="http://www.w3.org/2000/svg">
<g clip-path="url(#clip0_7_66)">
<path d="M2274 0H-82V1325H2274V0Z" fill="#191414"/>
<path d="M2274 927.5C2174.24 923.819 2074.35 920.262 1987.35 882.106C1900.35 843.951 1826.11 771.322 1767.71 696.729C1709.3 622.259 1666.72 545.949 1620.82 474.546C1574.81 403.021 1525.6 336.403 1479.22 258.13C1432.96 179.856 1389.64 89.9282 1346.32 0H2274V927.5Z" fill="#1ED760"/>
<path d="M-257 517.303C-131.948 485.535 -6.78722 453.579 104.635 478.819C216.206 504.02 314.147 586.228 431.39 630.122C548.741 673.826 685.244 679.256 762.204 752.149C838.975 824.933 856.094 965.369 913.708 1074.04C971.361 1182.86 1069.55 1260.07 1167.73 1337.28L45.2463 1639.58L-257 517.303Z" fill="#1ED760"/>
</g>
<defs>
<clipPath id="clip0_7_66">
<rect width="2356" height="1325" fill="white" transform="translate(-82)"/>
</clipPath>
</defs>
</svg>
